<?xml version="1.0" encoding="UTF-8" standalone="no"?>
<!-- Created with Inkscape (http://www.inkscape.org/) -->

<svg
   xmlns:dc="http://purl.org/dc/elements/1.1/"
   xmlns:cc="http://creativecommons.org/ns#"
   xmlns:rdf="http://www.w3.org/1999/02/22-rdf-syntax-ns#"
   xmlns:svg="http://www.w3.org/2000/svg"
   xmlns="http://www.w3.org/2000/svg"
   xmlns:sodipodi="http://sodipodi.sourceforge.net/DTD/sodipodi-0.dtd"
   xmlns:inkscape="http://www.inkscape.org/namespaces/inkscape"
   width="296"
   height="34"
   viewBox="0 0 167.11568 19.19572"
   version="1.1"
   id="svg8"
   sodipodi:docname="icons.svg"
   inkscape:version="0.92.1 r15371">
  <defs
     id="defs2" />
  <sodipodi:namedview
     id="base"
     pagecolor="#ffffff"
     bordercolor="#666666"
     borderopacity="1.0"
     inkscape:pageopacity="0"
     inkscape:pageshadow="2"
     inkscape:zoom="15.839192"
     inkscape:cx="306.95798"
     inkscape:cy="12.480007"
     inkscape:document-units="px"
     inkscape:current-layer="layer1"
     showgrid="true"
     units="px"
     inkscape:pagecheckerboard="true"
     scale-x="0.56458"
     inkscape:window-width="1920"
     inkscape:window-height="1024"
     inkscape:window-x="0"
     inkscape:window-y="28"
     inkscape:window-maximized="1" />
  <metadata
     id="metadata5">
    <rdf:RDF>
      <cc:Work
         rdf:about="">
        <dc:format>image/svg+xml</dc:format>
        <dc:type
           rdf:resource="http://purl.org/dc/dcmitype/StillImage" />
        <dc:title></dc:title>
      </cc:Work>
    </rdf:RDF>
  </metadata>
  <g
     inkscape:label="Layer 1"
     inkscape:groupmode="layer"
     id="layer1"
     transform="translate(0,-287.70415)"
     style="display:inline">
    <g
       id="XMLID_1_"
       transform="matrix(0.24692337,0,0,0.24681093,10.157039,283.20911)"
       style="fill:#ffffff">
      <path
         d="M 74.8,71.5 59.6,56.1 c 3,-3.8 4.8,-8.5 4.8,-13.7 0,-12.1 -9.8,-21.9 -21.9,-21.9 -12.1,0 -21.9,9.8 -21.9,21.9 0,12.1 9.8,21.9 21.9,21.9 5.2,0 10,-1.8 13.8,-4.9 l 15.2,15.3 c 0.5,0.5 1.1,0.7 1.7,0.7 0.6,0 1.2,-0.2 1.6,-0.6 0.9,-0.8 0.9,-2.3 0,-3.3 z M 42.4,59.6 c -4.6,0 -8.9,-1.8 -12.2,-5 -3.3,-3.2 -5,-7.6 -5,-12.2 0,-4.6 1.8,-8.9 5,-12.2 3.3,-3.3 7.6,-5 12.2,-5 4.6,0 8.9,1.8 12.2,5 3.3,3.2 5,7.6 5,12.2 0,4.6 -1.8,8.9 -5,12.2 -3.2,3.2 -7.6,5 -12.2,5 z"
         id="XMLID_5_"
         inkscape:connector-curvature="0"
         style="fill:#ffffff" />
    </g>
    <g
       id="g71"
       transform="translate(0,-4.5166306)"
       style="fill:#ffffff">
      <rect
         rx="0.21854709"
         y="293.34995"
         x="0.56458002"
         height="1.12916"
         width="13.54992"
         id="rect68"
         style="fill:#ffffff;fill-opacity:1;fill-rule:nonzero;stroke-width:0.4450191;stroke-miterlimit:4;stroke-dasharray:none" />
      <rect
         rx="0.21854708"
         y="304.64154"
         x="0.56458002"
         height="1.12916"
         width="13.54992"
         id="rect68-3"
         style="fill:#ffffff;fill-opacity:1;fill-rule:nonzero;stroke-width:0.44501907;stroke-miterlimit:4;stroke-dasharray:none" />
      <rect
         rx="0.21854708"
         y="298.99576"
         x="0.56458002"
         height="1.12916"
         width="13.54992"
         id="rect68-3-6"
         style="fill:#ffffff;fill-opacity:1;fill-rule:nonzero;stroke-width:0.44501907;stroke-miterlimit:4;stroke-dasharray:none" />
    </g>
    <g
       id="g958"
       transform="translate(0,-0.56458381)">
      <rect
         rx="2.2583201"
         y="288.83331"
         x="29.922741"
         height="16.937401"
         width="16.937401"
         id="rect92"
         style="fill:#ffffff;fill-opacity:1;fill-rule:nonzero;stroke-width:0.56546909;stroke-miterlimit:4;stroke-dasharray:none" />
      <g
         id="g926"
         inkscape:label="ink_ext_XXXXXX"
         transform="matrix(0.06415682,0,0,-0.0637429,32.74564,301.25407)">
        <g
           id="g928"
           transform="scale(0.1)">
          <path
             d="m 1723.22,1046.37 c -20.24,76.22 -79.88,136.24 -155.6,156.61 C 1430.37,1240 880,1240 880,1240 c 0,0 -550.367,0 -687.621,-37.02 C 116.656,1182.61 57.0156,1122.59 36.7773,1046.37 0,908.227 0,620 0,620 0,620 0,331.777 36.7773,193.629 57.0156,117.41 116.656,57.3906 192.379,37.0117 329.633,0 880,0 880,0 c 0,0 550.37,0 687.62,37.0117 75.72,20.3789 135.36,80.3983 155.6,156.6173 C 1760,331.777 1760,620 1760,620 c 0,0 0,288.227 -36.78,426.37"
             style="fill:#313d48;fill-opacity:1;fill-rule:nonzero;stroke:none"
             id="path930"
             inkscape:connector-curvature="0" />
          <path
             d="m 700,358.313 v 523.375 l 460,-261.7 z"
             style="fill:#ffffff;fill-opacity:1;fill-rule:nonzero;stroke:none"
             id="path932"
             inkscape:connector-curvature="0" />
        </g>
      </g>
    </g>
    <g
       id="g1226"
       transform="translate(0,-0.56458381)">
      <rect
         rx="2.2583201"
         y="288.83331"
         x="47.9893"
         height="16.937401"
         width="16.937401"
         id="rect92-3"
         style="fill:#ffffff;fill-opacity:1;fill-rule:nonzero;stroke-width:0.56546909;stroke-miterlimit:4;stroke-dasharray:none" />
      <g
         style="fill:#313d48;fill-opacity:1"
         transform="matrix(0.02536203,0,0,0.02509696,49.96533,290.87717)"
         id="g1132">
        <g
           style="fill:#313d48;fill-opacity:1"
           id="g1057">
          <g
             style="fill:#313d48;fill-opacity:1"
             id="g1055">
            <path
               style="fill:#313d48;fill-opacity:1"
               inkscape:connector-curvature="0"
               d="m 509.724,307.405 c -1.406,-1.4 -3.309,-2.187 -5.293,-2.187 -0.009,0 -0.019,0 -0.029,0 -48.08,0.172 -89.858,0.82 -98.786,0.028 -10.446,-0.909 -16.897,-7.128 -17.699,-17.079 -0.69,-8.329 -0.706,-15.276 -0.047,-21.883 0.95,-9.822 9.273,-19.136 17.498,-19.54 5.326,-0.286 15.544,-0.148 99.049,0.011 4.255,-0.041 7.513,-3.423 7.513,-7.499 V 213.54 c 10e-4,-4.138 -3.352,-7.493 -7.49,-7.498 -89.008,-0.176 -92.697,-0.279 -100.839,0.006 -33.166,1.275 -54.715,25.175 -56.517,58.499 -1.32,23.109 -0.176,47.312 16.667,64.374 10.107,10.288 25.454,16.803 40.058,16.999 9.827,0.125 90.835,0.017 100.633,10e-4 4.138,-0.006 7.488,-3.362 7.488,-7.5 10e-4,-27.44 0.675,-28.147 -2.206,-31.016 z m -12.791,23.526 c -21.848,0.028 -84.458,0.098 -92.927,-0.009 -10.626,-0.144 -22.227,-5.056 -29.567,-12.525 -6.966,-7.059 -11.139,-17.399 -12.403,-30.765 -0.544,-5.539 -0.38,-15.156 0.025,-22.253 0.691,-12.774 5.318,-24.668 12.385,-31.823 14.64,-14.87 29.442,-12.804 65.722,-12.634 11.193,0.049 42.348,0.092 56.765,0.109 v 10.711 c -76.401,-0.145 -86.423,-0.293 -92.334,0.023 -15.767,0.775 -29.968,15.613 -31.654,33.054 -0.75,7.514 -0.741,15.327 0.025,24.57 1.384,17.174 13.688,29.263 31.334,30.799 9.415,0.836 46.654,0.267 92.629,0.061 z"
               id="path1053" />
          </g>
        </g>
        <g
           style="fill:#313d48;fill-opacity:1"
           id="g1063">
          <g
             style="fill:#313d48;fill-opacity:1"
             id="g1061">
            <path
               style="fill:#313d48;fill-opacity:1"
               inkscape:connector-curvature="0"
               d="M 331.388,207.419 H 183.221 c -4.142,0 -7.499,3.357 -7.499,7.499 v 25.69 c 0,4.143 3.358,7.499 7.499,7.499 h 53.674 v 89.864 c 0,4.143 3.358,7.499 7.499,7.499 h 25.821 c 4.142,0 7.499,-3.357 7.499,-7.499 v -34.089 c 0,-4.143 -3.358,-7.499 -7.499,-7.499 -4.142,0 -7.499,3.357 -7.499,7.499 v 26.589 h -10.822 v -89.864 c 0,-4.143 -3.358,-7.499 -7.499,-7.499 H 190.72 v -10.691 h 133.167 v 10.691 h -53.672 c -4.142,0 -7.499,3.357 -7.499,7.499 v 28.278 c 0,4.143 3.358,7.499 7.499,7.499 4.142,0 7.499,-3.357 7.499,-7.499 v -20.778 h 53.672 c 4.143,0 7.5,-3.357 7.5,-7.499 v -25.69 c 0.002,-4.142 -3.356,-7.499 -7.498,-7.499 z"
               id="path1059" />
          </g>
        </g>
        <g
           style="fill:#313d48;fill-opacity:1"
           id="g1069">
          <g
             style="fill:#313d48;fill-opacity:1"
             id="g1067">
            <path
               style="fill:#313d48;fill-opacity:1"
               inkscape:connector-curvature="0"
               d="m 163.901,263.404 c -0.437,-32.798 -25.175,-55.769 -56.394,-57.431 -1.704,-0.097 -4.372,-0.172 -7.93,-0.226 -0.038,-0.001 -0.076,-0.001 -0.115,-0.001 -4.089,0 -7.434,3.284 -7.496,7.387 -0.063,4.142 3.245,7.549 7.386,7.61 4.174,0.063 6.277,0.146 7.332,0.205 23.587,1.255 41.891,18.042 42.22,42.637 0.052,4.656 0.021,49.302 0.006,67.334 h -10.829 c 0.063,-18.63 0.187,-62.918 -0.026,-67.241 -0.975,-17.674 -13.52,-30.836 -30.519,-32.01 -9.959,-0.671 -40.615,-0.913 -51.251,-0.003 -16.305,1.423 -29.091,14.593 -30.402,31.315 -0.488,6.208 -0.262,49.567 -0.142,67.94 H 14.999 V 181.014 h 10.835 v 39.247 c 0,5.976 6.61,9.587 11.629,6.365 9.047,-5.793 17.59,-5.701 27.113,-5.841 4.142,-0.061 7.449,-3.467 7.388,-7.607 -0.06,-4.142 -3.433,-7.44 -7.608,-7.389 -7.73,0.112 -14.766,0.111 -23.524,2.793 v -35.066 c 10e-4,-4.143 -3.357,-7.499 -7.498,-7.499 H 7.499 C 3.357,166.017 0,169.374 0,173.516 V 338.42 c 0,4.143 3.358,7.5 7.499,7.5 h 25.794 c 4.162,0 7.531,-3.394 7.499,-7.557 -0.205,-27.004 -0.362,-69.05 0.043,-74.21 0.736,-9.384 7.78,-16.763 16.739,-17.544 9.652,-0.824 39.86,-0.589 48.938,0.024 9.354,0.646 16.012,7.827 16.563,17.826 0.176,3.583 0.084,46.177 -0.021,73.932 -0.007,1.994 0.779,3.909 2.187,5.321 2.856,2.867 3.073,2.207 31.161,2.207 4.139,0 7.495,-3.354 7.499,-7.492 0.003,-2.818 0.066,-69.099 0,-75.023 z"
               id="path1065" />
          </g>
        </g>
        <g
           style="fill:#313d48;fill-opacity:1"
           id="g1071" />
        <g
           style="fill:#313d48;fill-opacity:1"
           id="g1073" />
        <g
           style="fill:#313d48;fill-opacity:1"
           id="g1075" />
        <g
           style="fill:#313d48;fill-opacity:1"
           id="g1077" />
        <g
           style="fill:#313d48;fill-opacity:1"
           id="g1079" />
        <g
           style="fill:#313d48;fill-opacity:1"
           id="g1081" />
        <g
           style="fill:#313d48;fill-opacity:1"
           id="g1083" />
        <g
           style="fill:#313d48;fill-opacity:1"
           id="g1085" />
        <g
           style="fill:#313d48;fill-opacity:1"
           id="g1087" />
        <g
           style="fill:#313d48;fill-opacity:1"
           id="g1089" />
        <g
           style="fill:#313d48;fill-opacity:1"
           id="g1091" />
        <g
           style="fill:#313d48;fill-opacity:1"
           id="g1093" />
        <g
           style="fill:#313d48;fill-opacity:1"
           id="g1095" />
        <g
           style="fill:#313d48;fill-opacity:1"
           id="g1097" />
        <g
           style="fill:#313d48;fill-opacity:1"
           id="g1099" />
      </g>
    </g>
    <rect
       style="fill:#ff0000;fill-opacity:1;fill-rule:nonzero;stroke-width:0.56323767;stroke-miterlimit:4;stroke-dasharray:none"
       id="rect1264"
       width="19.195721"
       height="19.195721"
       x="66.055862"
       y="287.70416"
       rx="2.3267541" />
    <g
       transform="matrix(0.0705725,0,0,-0.0705725,69.44334,301.6775)"
       inkscape:label="ink_ext_XXXXXX"
       id="g1293">
      <g
         transform="scale(0.1)"
         id="g1295">
        <path
           inkscape:connector-curvature="0"
           id="path1297"
           style="fill:#ffffff;fill-opacity:1;fill-rule:nonzero;stroke:none"
           d="m 700,358.313 v 523.375 l 460,-261.7 z m 1023.22,688.057 c -20.24,76.22 -79.88,136.24 -155.6,156.61 C 1430.37,1240 880,1240 880,1240 c 0,0 -550.367,0 -687.621,-37.02 C 116.656,1182.61 57.0156,1122.59 36.7773,1046.37 0,908.227 0,620 0,620 0,620 0,331.777 36.7773,193.629 57.0156,117.41 116.656,57.3906 192.379,37.0117 329.633,0 880,0 880,0 c 0,0 550.37,0 687.62,37.0117 75.72,20.3789 135.36,80.3983 155.6,156.6173 C 1760,331.777 1760,620 1760,620 c 0,0 0,288.227 -36.78,426.37" />
      </g>
    </g>
    <g
       id="g1545">
      <rect
         rx="2.3267541"
         y="287.70416"
         x="86.380737"
         height="19.195721"
         width="19.195721"
         id="rect1308"
         style="fill:#f0f0f0;fill-opacity:1;fill-rule:nonzero;stroke-width:0.58260453;stroke-miterlimit:4;stroke-dasharray:none" />
      <g
         transform="matrix(0.06420319,0,0,0.06446832,88.07448,294.29092)"
         id="g1398">
        <path
           d="m 225.74636,69.089146 c -13.0282,0.08455 -25.36693,0.188618 -28.80774,-0.117084 -6.95965,-0.604903 -11.61027,-5.157944 -12.15012,-11.857419 -0.36423,-4.396937 -0.36423,-8.039371 -0.0195,-11.506186 0.63091,-6.523858 6.08807,-12.735507 12.16962,-13.034707 2.17896,-0.117085 8.00686,-0.104065 18.5634,-0.05853 l 30.72002,0.05853 V 19.831739 c 0,0 -24.46934,-0.02602 -31.82574,-0.05853 -9.87361,-0.04553 -14.84293,-0.05204 -17.99104,0.05853 -6.92711,0.266677 -12.72899,2.731825 -17.2365,7.310884 -4.27336,4.325388 -6.82307,11.206984 -7.20032,18.173138 -0.21464,3.759511 -0.28617,8.670291 0,11.590742 0.70898,7.493005 3.13511,13.372932 7.20032,17.490184 4.3449,4.422954 10.95982,7.226326 17.24301,7.310882 5.15794,0.06504 49.81027,0 49.81027,0 V 68.972062 c 0,0 -13.56156,0.05204 -20.47567,0.117084"
           id="path38"
           style="fill:#8cc751;fill-opacity:1;fill-rule:nonzero;stroke:none"
           inkscape:connector-curvature="0" />
        <path
           d="m 87.067222,20.5147 v 12.729003 h 30.310258 v 48.242724 h 12.79405 V 33.243703 h 30.31023 V 20.5147 Z"
           id="path40"
           style="fill:#8cc751;fill-opacity:1;fill-rule:nonzero;stroke:none"
           inkscape:connector-curvature="0" />
        <path
           d="M 73.778854,44.587281 C 73.687752,37.731702 71.268172,31.851774 66.57855,27.097097 61.687271,22.121274 54.226797,20.052892 49.342029,19.792719 c -4.247343,-0.240662 -20.983015,-0.162616 -24.911635,0 -5.535195,0.234156 -9.567899,1.886259 -11.590752,3.395266 -0.01945,0.0131 -0.0391,0.0065 -0.0391,-0.02602 L 12.800542,0 H 0 v 81.707571 h 12.781031 c 0,0 -0.253661,-33.445339 0.03255,-37.087772 0.507321,-6.471823 5.418111,-11.55822 11.681796,-12.104585 5.021345,-0.429287 20.091928,-0.312208 24.820571,0.0065 6.491344,0.448798 11.285049,5.522189 11.662304,12.358253 0.123653,2.517183 -0.0058,36.8276 -0.0058,36.8276 h 12.807052 c 0,0 0.03255,-34.18033 0,-37.120294"
           id="path50"
           style="fill:#8cc751;fill-opacity:1;fill-rule:nonzero;stroke:none"
           inkscape:connector-curvature="0" />
      </g>
    </g>
    <g
       id="g182">
      <path
         d="m 125.50019,290.3846 c -0.22075,-0.83288 -0.87111,-1.48874 -1.69707,-1.71133 -1.49694,-0.40453 -7.49964,-0.40453 -7.49964,-0.40453 0,0 -6.00266,0 -7.49965,0.40453 -0.82588,0.22259 -1.47636,0.87845 -1.69709,1.71133 -0.40112,1.50954 -0.40112,4.65909 -0.40112,4.65909 0,0 0,3.14952 0.40112,4.6592 0.22073,0.83278 0.87121,1.48863 1.69709,1.71132 1.49699,0.40444 7.49965,0.40444 7.49965,0.40444 0,0 6.0027,0 7.49964,-0.40444 0.82596,-0.22269 1.47632,-0.87854 1.69707,-1.71132 0.40115,-1.50968 0.40115,-4.6592 0.40115,-4.6592 0,0 0,-3.14955 -0.40115,-4.65909"
         style="fill:#b3b3b3;fill-opacity:1;fill-rule:nonzero;stroke:none;stroke-width:0.010917"
         id="path1454"
         inkscape:connector-curvature="0" />
      <path
         d="m 114.34028,297.90324 5.01707,-2.85942 -5.01707,-2.85968 z"
         style="fill:#ffffff;fill-opacity:1;fill-rule:nonzero;stroke:none;stroke-width:0.010917"
         id="path1456"
         inkscape:connector-curvature="0" />
    </g>
    <g
       id="g131"
       transform="matrix(0.12984497,0,0,0.13074935,117.209,279.42195)">
      <path
         id="path127"
         d="m 379.3,152.5 c -6.4,-29.9 -22.1,-56.3 -43.9,-76.2 -12.7,-11.6 -32.1,-11.5 -44.7,0.2 -1.6,1.5 -3.1,3 -4.6,4.5 8.4,11.1 13.5,24.9 15.2,40 1.2,10.9 -5.5,22.7 -15.5,27.2 -12.7,5.7 -25.9,8.3 -38.7,7.6 -1.8,15.5 7.9,30.3 23.1,35 13.7,4.2 28.3,6.5 43.4,6.4 15.1,-0.1 29.7,-2.5 43.4,-6.9 16,-5.1 25.8,-21.4 22.3,-37.8 z"
         class="st1"
         inkscape:connector-curvature="0"
         style="fill:#e6e6e6" />
      <path
         id="path129"
         d="m 279.8,139.4 c 7.5,-3.4 12.6,-12.2 11.6,-20.4 -1.3,-11.3 -5.1,-21.7 -11.4,-30 -1.5,-2 -3.2,-3.9 -5,-5.7 -5.1,-5 -13.5,-3.8 -19.5,2.5 -5.1,5.4 -9.8,11.5 -13.7,18.4 -3.9,6.9 -6.9,14 -8.9,21.2 -2.3,8.4 1,16.2 7.8,18.1 3.3,0.9 6.6,1.4 10,1.6 9.6,0.6 19.6,-1.4 29.1,-5.7 z"
         class="st2"
         inkscape:connector-curvature="0"
         style="fill:#1cb5d8" />
    </g>
    <g
       id="Layer_2"
       transform="matrix(0.10340294,0,0,0.10340288,142.26175,272.44603)" />
    <g
       id="Layer_3"
       transform="matrix(0.10340294,0,0,0.10340288,142.26175,272.44603)" />
    <g
       transform="matrix(0.10927355,0,0,-0.10927355,127.0305,301.81865)"
       inkscape:label="ink_ext_XXXXXX"
       id="g1528">
      <g
         transform="scale(0.1)"
         id="g1530">
        <path
           inkscape:connector-curvature="0"
           id="path1532"
           style="fill:#ed1d24;fill-opacity:1;fill-rule:nonzero;stroke:none"
           d="m 1723.22,1046.37 c -20.24,76.22 -79.87,136.24 -155.6,156.61 C 1430.37,1240 880,1240 880,1240 c 0,0 -550.367,0 -687.621,-37.02 C 116.656,1182.61 57.0156,1122.59 36.7773,1046.37 0,908.227 0,620 0,620 0,620 0,331.777 36.7773,193.621 57.0156,117.41 116.656,57.3906 192.379,37.0117 329.633,0 880,0 880,0 c 0,0 550.37,0 687.62,37.0117 75.73,20.3789 135.36,80.3983 155.6,156.6093 C 1760,331.777 1760,620 1760,620 c 0,0 0,288.227 -36.78,426.37" />
        <path
           inkscape:connector-curvature="0"
           id="path1534"
           style="fill:#ffffff;fill-opacity:1;fill-rule:nonzero;stroke:none"
           d="m 700,358.313 460,261.675 -460,261.7 z" />
      </g>
    </g>
  </g>
  <style
     id="style123"
     type="text/css">
	.st0{fill:#313D48;}
	.st1{fill:#E6E6E6;}
	.st2{fill:#1CB5D8;}
</style>
</svg>
